<?xml version="1.0" encoding="UTF-8"?>
<svg xmlns="http://www.w3.org/2000/svg" xmlns:xlink="http://www.w3.org/1999/xlink" version="1.1" viewBox="0 0 250 250">
  <!-- Generator: Adobe Illustrator 29.5.1, SVG Export Plug-In . SVG Version: 2.1.0 Build 141)  -->
  <defs>
    <style>
      .st0 {
        fill: url(#linear-gradient3);
      }

      .st1 {
        fill: url(#linear-gradient6);
      }

      .st2 {
        fill: url(#linear-gradient1);
      }

      .st2, .st3, .st4, .st5, .st6, .st7, .st8, .st9, .st10, .st11, .st12, .st13, .st14, .st15 {
        opacity: 1;
      }

      .st3 {
        fill: url(#linear-gradient2);
      }

      .st4 {
        fill: url(#linear-gradient8);
      }

      .st5 {
        fill: url(#linear-gradient7);
      }

      .st6 {
        fill: url(#linear-gradient4);
      }

      .st7 {
        fill: url(#linear-gradient5);
      }

      .st8 {
        fill: url(#linear-gradient9);
      }

      .st16 {
        fill: url(#linear-gradient13);
      }

      .st17 {
        fill: url(#linear-gradient10);
      }

      .st18 {
        isolation: isolate;
      }

      .st9 {
        fill: url(#linear-gradient12);
      }

      .st10 {
        fill: url(#linear-gradient11);
      }

      .st11 {
        fill: url(#linear-gradient);
      }

      .st19 {
        fill: #c95876;
      }

      .st20 {
        fill: #f4fafb;
      }

      .st21 {
        fill: #fff;
        mix-blend-mode: screen;
        opacity: .4;
      }

      .st12 {
        fill: url(#New_Gradient_Swatch_copy_7);
      }

      .st22, .st23 {
        fill: #231f20;
        opacity: .2;
      }

      .st23 {
        mix-blend-mode: hard-light;
      }

      .st13 {
        fill: url(#New_Gradient_Swatch_copy_72);
      }

      .st14 {
        fill: url(#New_Gradient_Swatch_copy_71);
      }

      .st15 {
        fill: url(#New_Gradient_Swatch_copy_73);
      }

      .st24 {
        fill: #38495b;
      }
    </style>
    <linearGradient id="New_Gradient_Swatch_copy_7" data-name="New Gradient Swatch copy 7" x1="64.4" y1="271.8" x2="31.7" y2="26.2" gradientTransform="translate(309.9 84) rotate(-128.5) scale(1 -1)" gradientUnits="userSpaceOnUse">
      <stop offset="0" stop-color="#ee2a7b"/>
      <stop offset="1" stop-color="#ffde17"/>
    </linearGradient>
    <linearGradient id="linear-gradient" x1="58" y1="77.2" x2="99.6" y2="-62.2" gradientTransform="translate(174 149.4) rotate(-106) scale(1 -1)" gradientUnits="userSpaceOnUse">
      <stop offset="0" stop-color="#662d91"/>
      <stop offset="1" stop-color="#ee2a7b"/>
    </linearGradient>
    <linearGradient id="linear-gradient1" x1="22" y1="95.3" x2="157.1" y2="95.3" gradientTransform="translate(174 149.4) rotate(-106) scale(1 -1)" gradientUnits="userSpaceOnUse">
      <stop offset="0" stop-color="#2e3192"/>
      <stop offset="1" stop-color="#00aeef"/>
    </linearGradient>
    <linearGradient id="New_Gradient_Swatch_copy_71" data-name="New Gradient Swatch copy 7" x1="13.7" y1="180.5" x2="-20.5" y2="-76.5" gradientTransform="translate(174 149.4) rotate(-106) scale(1 -1)" xlink:href="#New_Gradient_Swatch_copy_7"/>
    <linearGradient id="linear-gradient2" x1="33.9" y1="109.5" x2="76.9" y2="-34.6" xlink:href="#linear-gradient"/>
    <linearGradient id="linear-gradient3" x1="-6.5" x2="128.5" xlink:href="#linear-gradient1"/>
    <linearGradient id="linear-gradient4" x1="-38.1" y1="10.8" x2="-21.9" y2="139.1" gradientTransform="translate(174 149.4) rotate(-106) scale(1 -1)" gradientUnits="userSpaceOnUse">
      <stop offset="0" stop-color="#ffde17"/>
      <stop offset="1" stop-color="#ee2a7b"/>
    </linearGradient>
    <linearGradient id="linear-gradient5" x1="134.8" y1="-42.4" x2="106.8" y2="48" gradientTransform="translate(193.2 139.1) rotate(-119.4) scale(1 -1)" gradientUnits="userSpaceOnUse">
      <stop offset="0" stop-color="#ee2a7b"/>
      <stop offset="1" stop-color="#662d91"/>
    </linearGradient>
    <linearGradient id="linear-gradient6" x1="109.1" y1="133.8" x2="183.1" y2="133.8" gradientTransform="translate(225 129.4) rotate(-114.8) scale(1 -1)" xlink:href="#linear-gradient1"/>
    <linearGradient id="New_Gradient_Swatch_copy_72" data-name="New Gradient Swatch copy 7" x1="360.7" y1="195.4" x2="356.1" y2="160.7" gradientTransform="matrix(1,0,0,1,0,0)" xlink:href="#New_Gradient_Swatch_copy_7"/>
    <linearGradient id="linear-gradient7" x1="290.1" y1="162.5" x2="295.7" y2="143.5" gradientTransform="translate(33.3 147.1) rotate(-22.5)" xlink:href="#linear-gradient"/>
    <linearGradient id="linear-gradient8" x1="289" y1="166.3" x2="302.6" y2="166.3" gradientTransform="translate(33.3 147.1) rotate(-22.5)" xlink:href="#linear-gradient1"/>
    <linearGradient id="New_Gradient_Swatch_copy_73" data-name="New Gradient Swatch copy 7" x1="288.1" y1="177.4" x2="283.1" y2="139.6" gradientTransform="translate(33.3 147.1) rotate(-22.5)" xlink:href="#New_Gradient_Swatch_copy_7"/>
    <linearGradient id="linear-gradient9" x1="287.2" y1="166.2" x2="292.9" y2="147.2" gradientTransform="translate(33.3 147.1) rotate(-22.5)" xlink:href="#linear-gradient"/>
    <linearGradient id="linear-gradient10" x1="286.1" y1="166.3" x2="299.7" y2="166.3" gradientTransform="translate(33.3 147.1) rotate(-22.5)" xlink:href="#linear-gradient1"/>
    <linearGradient id="linear-gradient11" x1="282.8" y1="153.3" x2="285.3" y2="173.7" gradientTransform="translate(33.3 147.1) rotate(-22.5)" xlink:href="#linear-gradient4"/>
    <linearGradient id="linear-gradient12" x1="298.8" y1="148.2" x2="295.5" y2="158.9" gradientTransform="translate(33.3 147.1) rotate(-22.5)" xlink:href="#linear-gradient5"/>
    <linearGradient id="linear-gradient13" x1="321.9" y1="177.5" x2="330.4" y2="177.5" gradientTransform="translate(14.8 98.7) rotate(-14.8)" xlink:href="#linear-gradient1"/>
  </defs>
  <g class="st18">
    <g id="Layer_1">
      <rect class="st20" y="0" width="250" height="250"/>
      <g>
        <path class="st12" d="M39.1,140.9c6.4,17,14,33.1,23.9,46.6h0c11.4,15.7,25.8,27.9,44.8,33.9,41.8,13.2,79-24.4,104.4-62.1h0c21.9-32.5,35.2-65,35.2-65,0,0,0,0,0,0-1.1-1.5-19.9-24.2-50-19.6h0c-15.1,2.3-33,11.4-53,33.5-11.8,13-23.2,23.2-33.9,30.6h0c-.5.4-1,.7-1.5,1-29.3,19.7-53.9,19.2-69.8,1Z"/>
        <path class="st21" d="M42,148.4c-.6-1.5-1.2-2.9-1.7-4.4,16.2,18.5,41.4,18.7,71.3-2.1h0c10.7-7.4,22.1-17.6,33.9-30.6,20-22.1,37.9-31.3,53-33.5h0c25.7-3.9,43.2,12.1,48.4,17.8.3-.7.5-1.1.5-1.1,0,0,0,0,0,0-1.1-1.5-19.9-24.2-50-19.6h0c-15.1,2.3-33,11.4-53,33.5-11.8,13-23.2,23.2-33.9,30.6h0c-29.9,20.8-55.2,20.6-71.3,2.1,1,2.5,1.9,5.1,3,7.5Z"/>
        <path class="st11" d="M107.3,70.6c-8.3,11.9-16,21.3-23.3,28.7,4.8,9.3,9.5,18.3,14.5,25.7,3.7,5.6,7.6,10.4,11.8,13.9h0c10.8-7.4,22.1-17.6,33.9-30.6,20-22.1,37.9-31.2,53-33.5h0c4.3-8.8,8.8-18.7,12-27.8,0,0-50.4-50.9-102,23.6Z"/>
        <path class="st2" d="M3.7,34.8c13,25.2,20.9,67.6,35.4,106.1,9.7,11.1,22.7,15.7,38.1,12.9h0c10.1-1.7,21.3-6.7,33.2-15-9.9-8.3-17.9-23.4-26.3-39.6C65.9,64.2,46.1,23.8,3.7,34.8Z"/>
        <path class="st14" d="M63,187.6c11.4,15.7,25.8,27.9,44.8,33.9,77.9,24.6,139.6-127.1,139.6-127.1,0,0,0,0,0,0-1.2-.7-23.4-13.6-68.7,42.4-51.2,63.2-88.5,73.4-115.6,50.9Z"/>
        <path class="st3" d="M98.6,125c3.7,5.6,7.6,10.4,11.8,13.9h0c10.8-7.4,22.1-17.6,33.9-30.6,20-22.1,37.9-31.2,53-33.5h0c4.3-8.8,8.8-18.7,12-27.8-45.6-14.6-75.8,43.8-110.8,78Z"/>
        <path class="st0" d="M3.7,34.8s31.5,9.1,59.2,86.3c4.7,13.3,9.5,24,14.3,32.7h0c10.1-1.7,21.3-6.7,33.2-15-9.9-8.3-17.9-23.4-26.3-39.6C65.9,64.2,46.1,23.8,3.7,34.8Z"/>
        <path class="st21" d="M3.7,34.8s.6.2,1.7.6c40.5-8.6,59.8,30.8,77.6,65.1,8.3,16.1,16.3,31,26,39.4.5-.3,1-.6,1.5-1-9.9-8.3-18-23.4-26.3-39.7C65.9,64.2,46.1,23.8,3.7,34.8Z"/>
        <path class="st23" d="M33.3,124.5c1.8,5.5,3.7,11,5.7,16.4,16.2,18.5,41.4,18.8,71.3-2-9.9-8.3-17.9-23.4-26.3-39.6-23.1,23.6-40.5,26.5-50.7,25.2Z"/>
        <path class="st6" d="M161.6,237c-11,3.3-22.1,4-33.1,2.4-10.9-1.6-21.6-5.8-31.7-12.8-5.1-3.3-9.9-7.6-14.5-12.4-4.7-4.6-9-10.3-13.3-16.1-8.4-11.9-15.8-25.8-22.7-40.7,5,16.9,11.8,32.6,20,45.9,8.2,13.4,18,24.2,28.6,31.5,5.3,3.6,10.8,6.4,16.4,8.4,5.6,1.8,11.3,3,17,3.1,11.4.3,22.8-2.5,33.3-9.4Z"/>
        <path class="st7" d="M171.4,3.3c-6.8-.7-13.7,1.1-20.2,4.4-1.6.9-3.3,1.7-4.9,2.7l-4.8,3.3c-3.1,2.5-6.2,5.2-9.1,8.4-1.5,1.5-2.9,3.2-4.3,5-1.4,1.8-2.8,3.4-4.1,5.4-2.5,4-5.1,7.8-7.3,12.4-4.6,8.6-8.1,18.8-10.7,29.3,4.5-8.6,8.7-17.1,13.7-24.4,4.8-7.6,10-14.2,15.5-20,5.4-6,11.3-11,17.3-15.4,6-4.3,12.3-8,18.8-10.9Z"/>
        <path class="st1" d="M82.5,74.1c-3.8-10.7-9.1-19.9-15.1-27.6-5.9-7.8-12.7-13.8-20-17.7-3.6-2-7.4-3-11.2-4-1.9-.2-3.8-.2-5.7-.3-.9,0-1.9-.2-2.8,0l-2.8.6c-7.6,1-14.7,5.9-21.2,11.8,7.3-2.4,14.3-5.2,21.4-4.8,3.5-.3,7,.6,10.5,1.2l5.2,1.7c1.7.4,3.4,1.7,5.1,2.4,6.7,3.5,13.1,8.7,19.2,14.9,6.1,6.4,11.9,13.6,17.4,21.9Z"/>
        <path class="st21" d="M107.3,70.6c-8.2,11.9-16,21.3-23.3,28.7.4.8.8,1.6,1.2,2.3,7-7.2,14.4-16.3,22.3-27.7,47.2-68.1,93.3-31.5,100.9-24.7.3-.7.6-1.5.8-2.3,0,0-50.4-50.9-102,23.6Z"/>
        <path class="st23" d="M39.1,140.9c6.4,17,14,33.1,23.9,46.6h0c11.4,15.7,25.8,27.9,44.8,33.9,41.8,13.2,79-24.4,104.4-62.1-34.1,36.1-86.1-4.2-103.4-19.5-29.3,19.7-53.9,19.2-69.8,1Z"/>
      </g>
      <ellipse class="st22" cx="380.3" cy="213.6" rx="15" ry="1.8"/>
      <g>
        <path class="st19" d="M369,140h-1.4v-.9h3.8v.9h-1.4v4.2h-1v-4.2Z"/>
        <path class="st19" d="M377.1,143.2h-1.9l-.3,1h-1l1.9-5h1l1.9,5h-1l-.3-1ZM376.8,142.3l-.7-2h0l-.7,2h1.4Z"/>
        <path class="st19" d="M382.6,144.1c-.3-.1-.6-.3-.8-.5s-.4-.5-.5-.8-.2-.7-.2-1.1,0-.7.2-1c.1-.3.3-.6.5-.8.2-.2.5-.4.8-.5.3-.1.7-.2,1.1-.2s.7,0,1.1.2c.4.1.7.4.9.6l-.7.6c-.4-.3-.8-.5-1.3-.5s-.4,0-.6.1c-.2,0-.3.2-.5.3-.1.1-.2.3-.3.5,0,.2-.1.4-.1.7s0,.6.2.8c.1.2.3.4.5.6.2.1.5.2.8.2s.7,0,1-.3v-.7h-1.1v-.9h2.1v2.2c-.2.2-.5.3-.9.5-.4.1-.7.2-1.1.2s-.7,0-1-.2Z"/>
        <path class="st19" d="M389,139.1h1v4.2h2.2v.9h-3.2v-5Z"/>
        <path class="st19" d="M395.5,139.1h1v5h-1v-5Z"/>
        <path class="st19" d="M404.3,139.1v5h-1l-2.2-3.3h0v3.3h-1v-5h1l2.2,3.4h0v-3.4h1Z"/>
        <path class="st19" d="M407.8,139.1h3.2v.9h-2.2v1.2h1.8v.9h-1.8v1.2h2.4v.9h-3.4v-5Z"/>
        <path class="st19" d="M418.8,139.1h1v2.2h2.1v-2.2h1v5h-1v-2h-2.1v2h-1v-5Z"/>
        <path class="st19" d="M426.4,139.1h3.2v.9h-2.2v1.2h1.8v.9h-1.8v1.2h2.4v.9h-3.4v-5Z"/>
        <path class="st19" d="M435.7,144.2l-1.1-1.7h-.6v1.7h-1v-5h1.9c.3,0,.6,0,.8.1.2,0,.4.2.5.4.1.2.2.3.3.5,0,.2.1.4.1.7s0,.5-.1.7c0,.2-.2.4-.4.5-.2.1-.3.2-.6.3h0s1.2,1.8,1.2,1.8h-1.2ZM434,141.6h.7c.3,0,.5,0,.7-.2.2-.1.2-.3.2-.6s0-.4-.2-.6c-.2-.1-.4-.2-.7-.2h-.7v1.6Z"/>
        <path class="st19" d="M440.1,139.1h3.2v.9h-2.2v1.2h1.8v.9h-1.8v1.2h2.4v.9h-3.4v-5Z"/>
      </g>
      <g>
        <path class="st24" d="M361.7,130.2c0,.8-.1,1.5-.3,2.1-.2.6-.5,1.1-.9,1.5-.4.4-.9.7-1.4.9s-1.2.3-1.9.3-1.3-.1-1.9-.3c-.6-.2-1-.5-1.4-.9-.4-.4-.7-.9-.9-1.5-.2-.6-.3-1.3-.3-2.1v-6.4h1.2v6.3c0,1.2.3,2.1.9,2.7.6.6,1.4,1,2.5,1s1.8-.3,2.4-.9c.6-.6.9-1.5.9-2.7v-6.4h1.2v6.3Z"/>
        <path class="st24" d="M368.1,127.3c0,.2.2.4.5.6s.5.3.9.5c.4.1.9.3,1.5.4,1.2.3,2.1.6,2.7,1.1.6.5.9,1.1.9,2s0,.9-.3,1.3c-.2.4-.4.7-.8,1-.3.3-.7.5-1.2.6-.5.1-1,.2-1.5.2-.9,0-1.7-.1-2.4-.4-.7-.3-1.4-.7-2.1-1.3l.8-.9c.6.5,1.2.9,1.7,1.2.6.3,1.3.4,2,.4s1.3-.2,1.8-.5c.4-.3.7-.8.7-1.4s0-.5-.1-.7c0-.2-.2-.4-.4-.6-.2-.2-.5-.3-.9-.5-.4-.1-.8-.3-1.4-.4-.6-.1-1.2-.3-1.6-.5-.5-.2-.9-.4-1.2-.6-.3-.3-.5-.5-.7-.9-.1-.3-.2-.7-.2-1.2s0-.8.3-1.2c.2-.4.4-.7.8-.9.3-.3.7-.5,1.1-.6.4-.2.9-.2,1.4-.2.8,0,1.5.1,2.1.3.6.2,1.2.6,1.7,1l-.7,1c-.5-.4-1-.7-1.5-.9-.5-.2-1.1-.3-1.6-.3s-.7,0-1,.1c-.3,0-.5.2-.7.4-.2.2-.4.3-.5.6-.1.2-.2.5-.2.7s0,.5.1.7Z"/>
        <path class="st24" d="M387.3,125h-6.7v3.7h6v1.1h-6v3.8h6.8v1.1h-8v-11h7.9v1.1Z"/>
        <path class="st24" d="M399.8,134.9l-3.2-4.3h-3.1v4.3h-1.2v-11h4.7c.6,0,1.2,0,1.6.2.5.2.9.4,1.2.7.3.3.6.6.8,1,.2.4.3.8.3,1.3s0,.9-.2,1.2c-.1.4-.4.7-.6.9-.3.3-.6.5-.9.7-.4.2-.8.3-1.2.4l3.4,4.5h-1.5ZM398.9,125.6c-.5-.4-1.2-.6-2.1-.6h-3.4v4.5h3.4c.4,0,.8,0,1.1-.2.3-.1.6-.3.9-.4.3-.2.4-.4.6-.7.1-.3.2-.6.2-1,0-.7-.2-1.2-.7-1.6Z"/>
        <path class="st24" d="M413.3,134.9l-5.3-7v7h-2.4v-11h2.2l5.1,6.8v-6.8h2.4v11h-2.1Z"/>
        <path class="st24" d="M428.5,134.9l-1-2.5h-4.6l-1,2.5h-2.5l4.7-11h2.2l4.7,11h-2.5ZM425.2,126.7l-1.5,3.6h2.9l-1.5-3.6Z"/>
        <path class="st24" d="M443.7,134.9v-7.2l-3.1,4.7h0l-3.1-4.6v7.1h-2.4v-11h2.6l2.9,4.6,2.9-4.6h2.6v11h-2.4Z"/>
        <path class="st24" d="M451.1,134.9v-11h8.3v2.1h-5.9v2.2h5.2v2.1h-5.2v2.3h6v2.1h-8.3Z"/>
      </g>
      <g>
        <g>
          <path class="st13" d="M368.1,192.7c-1.8.2-3.6.2-5.5-.2h0c-2.2-.5-4.4-1.5-6.6-3.4-4.9-4.2-5.7-10.7-5.5-15.9h0c.2-4.4,1.3-7.8,1.3-7.8,0,0,0,0,0,0,.2,0,3.6,1,6.1,4.8h0c1.3,1.9,2.3,4.6,2.6,8.2.2,2.1.6,4,1,5.7h0c0,0,0,.2,0,.2,1.4,4.6,3.7,7.5,6.5,8.3Z"/>
          <path class="st21" d="M367.3,192.7c.2,0,.3,0,.5,0-2.8-.9-5.2-3.9-6.6-8.6h0c-.5-1.7-.8-3.6-1-5.7-.3-3.6-1.4-6.2-2.6-8.2h0c-2.2-3.3-4.9-4.4-5.8-4.7,0,0,0-.1,0-.1,0,0,0,0,0,0,.2,0,3.6,1,6.1,4.8h0c1.3,1.9,2.3,4.6,2.6,8.2.2,2.1.6,4,1,5.7h0c1.4,4.7,3.8,7.7,6.6,8.6-.3,0-.5,0-.8,0Z"/>
          <path class="st5" d="M366.7,180.6c0,1.6,0,3.1.2,4.4-1.1,0-2.2-.1-3.2-.3-.7-.1-1.4-.3-2.1-.6h0c-.5-1.7-.8-3.6-1-5.7-.3-3.6-1.4-6.2-2.6-8.2h0c.2-1,.5-2.1.8-3,0,0,8.3,3.1,8,13.4Z"/>
          <path class="st4" d="M378.9,190.9c-3-.1-6.7,1.3-10.8,1.7-1.7-.5-3.2-1.8-4.5-3.8h0c-.8-1.3-1.5-2.9-2.1-4.8,1.5.7,3.3.8,5.3.9,4.2.2,8.9.3,12.1,5.9Z"/>
          <path class="st15" d="M362.6,192.4c-2.2-.5-4.4-1.5-6.6-3.4-9.1-7.9-4.2-23.7-4.2-23.7,0,0,0,0,0,0,.2.1,3.2,2,3.5,10.5.4,9.6,3.2,14.6,7.3,16.6Z"/>
          <path class="st8" d="M363.7,184.7c-.7-.1-1.4-.3-2.1-.6h0c-.5-1.7-.8-3.6-1-5.7-.3-3.6-1.4-6.2-2.6-8.2h0c.2-1,.5-2.1.8-3,5.3,4.6,4.1,11.4,5,17.5Z"/>
          <path class="st17" d="M378.9,190.9s-3.6-3.2-11.7-2.2c-1.4.2-2.6.2-3.6.1h0c-.8-1.3-1.5-2.9-2.1-4.8,1.5.7,3.3.8,5.3.9,4.2.2,8.9.3,12.1,5.9Z"/>
          <path class="st21" d="M378.9,190.9s0,0-.2-.2c-3.2-5.3-7.8-5.4-11.9-5.6-1.9,0-3.7-.2-5.2-.9,0,0,0-.2,0-.2,1.5.7,3.3.8,5.3.9,4.2.2,8.9.3,12.1,5.9Z"/>
          <path class="st23" d="M369.8,192.4c-.6,0-1.1.2-1.7.2-2.8-.9-5.2-3.9-6.6-8.6,1.5.7,3.3.8,5.3.9.5,4.1,2,6.3,3,7.4Z"/>
          <path class="st10" d="M350.7,185.6c.8,1.5,1.8,2.8,2.9,4.1,1.1,1.2,2.4,2.2,3.9,3,.7.4,1.5.7,2.2,1,.8.3,1.6.5,2.4.7,1.6.3,3.3.4,5,.4-1.7.4-3.4.4-5.1.2-1.7-.2-3.4-.8-4.9-1.6-.8-.4-1.5-.9-2.1-1.5-.7-.6-1.3-1.2-1.8-1.8-1.1-1.3-2-2.8-2.5-4.5Z"/>
          <path class="st9" d="M364.4,169.5c.9.6,1.6,1.4,2.2,2.2.1.2.3.4.4.7l.4.7c.2.5.4.9.6,1.4,0,.2.2.5.2.7,0,.3.1.5.2.8,0,.5.2,1,.2,1.6,0,1,0,2.1-.3,3.1,0-1,0-2-.3-3-.1-1-.4-1.9-.7-2.9-.3-.9-.7-1.8-1.2-2.7-.5-.9-1-1.7-1.6-2.5Z"/>
          <path class="st16" d="M370.2,183.5c1.1-.2,2.3,0,3.4.2,1.1.2,2.2.7,3.2,1.3.5.3.9.7,1.4,1.1.2.2.4.4.6.6,0,.1.2.2.3.3l.2.4c.7.9,1,2.1,1.2,3.1-.5-1-1-2-1.7-2.8-.3-.4-.7-.8-1.1-1.2l-.6-.5c-.2-.2-.4-.3-.7-.5-.9-.6-1.9-1-2.9-1.4-1-.3-2.1-.6-3.2-.8Z"/>
          <path class="st21" d="M366.7,180.6c0,1.6,0,3.1.2,4.4,0,0-.2,0-.3,0-.1-1.2-.2-2.6-.2-4.2.3-9.4-6.6-12.8-7.8-13.4,0,0,0-.1,0-.2,0,0,8.3,3.1,8,13.4Z"/>
          <path class="st23" d="M368.1,192.7c-1.8.2-3.6.2-5.5-.2h0c-2.2-.5-4.4-1.5-6.6-3.4-4.9-4.2-5.7-10.7-5.5-15.9.7,6.1,8.4,10,11.1,11.2,1.4,4.6,3.7,7.5,6.5,8.3Z"/>
        </g>
        <g>
          <path class="st19" d="M384.8,187.1h-1v-.6h2.7v.6h-1v3h-.7v-3Z"/>
          <path class="st19" d="M390.5,189.3h-1.4l-.2.7h-.7l1.3-3.6h.7l1.3,3.6h-.7l-.2-.7ZM390.3,188.7l-.5-1.4h0l-.5,1.4h1Z"/>
          <path class="st19" d="M394.5,190c-.2,0-.4-.2-.6-.4-.2-.2-.3-.3-.4-.6,0-.2-.1-.5-.1-.8s0-.5.1-.7c0-.2.2-.4.4-.6.2-.2.3-.3.6-.4.2,0,.5-.1.8-.1s.5,0,.8.2c.3.1.5.3.7.5l-.5.4c-.3-.2-.6-.4-.9-.4s-.3,0-.4,0c-.1,0-.2.1-.3.2,0,0-.2.2-.2.4,0,.1,0,.3,0,.5s0,.4.1.6.2.3.4.4c.2.1.4.2.6.2s.5,0,.7-.2v-.5h-.8v-.6h1.5v1.6c-.2.1-.4.2-.6.3-.3,0-.5.1-.8.1s-.5,0-.7-.1Z"/>
          <path class="st19" d="M399.1,186.4h.7v3h1.6v.6h-2.3v-3.6Z"/>
          <path class="st19" d="M403.7,186.4h.7v3.6h-.7v-3.6Z"/>
          <path class="st19" d="M410,186.4v3.6h-.7l-1.6-2.4h0v2.4h-.7v-3.6h.7l1.6,2.4h0v-2.4h.7Z"/>
          <path class="st19" d="M412.5,186.4h2.3v.6h-1.6v.9h1.3v.6h-1.3v.8h1.7v.6h-2.4v-3.6Z"/>
          <path class="st19" d="M420.3,186.4h.7v1.6h1.5v-1.6h.7v3.6h-.7v-1.4h-1.5v1.4h-.7v-3.6Z"/>
          <path class="st19" d="M425.7,186.4h2.3v.6h-1.6v.9h1.3v.6h-1.3v.8h1.7v.6h-2.4v-3.6Z"/>
          <path class="st19" d="M432.4,190l-.8-1.2h-.4v1.2h-.7v-3.6h1.4c.2,0,.4,0,.6,0,.2,0,.3.1.4.3.1.1.2.2.2.4,0,.1,0,.3,0,.5s0,.4,0,.5c0,.1-.1.3-.3.4-.1,0-.2.2-.4.2h0s.9,1.3.9,1.3h-.8ZM431.2,188.2h.5c.2,0,.4,0,.5-.1.1-.1.2-.2.2-.4s0-.3-.2-.4c-.1,0-.3-.1-.5-.1h-.5v1.1Z"/>
          <path class="st19" d="M435.5,186.4h2.3v.6h-1.6v.9h1.3v.6h-1.3v.8h1.7v.6h-2.4v-3.6Z"/>
        </g>
        <g>
          <path class="st24" d="M389.9,179.1c0,.6,0,1.1-.2,1.5-.2.4-.4.8-.7,1.1-.3.3-.6.5-1.1.7s-.9.2-1.4.2-.9,0-1.4-.2-.8-.4-1.1-.7c-.3-.3-.5-.7-.7-1.1-.2-.4-.2-.9-.2-1.5v-4.7h.9v4.6c0,.9.2,1.5.6,2,.4.5,1,.7,1.8.7s1.3-.2,1.8-.7c.4-.4.7-1.1.7-2v-4.7h.9v4.6Z"/>
          <path class="st24" d="M394.5,177c0,.2.2.3.3.4s.4.2.7.3c.3.1.6.2,1.1.3.9.2,1.6.5,2,.8.4.4.6.8.6,1.5s0,.7-.2.9c-.1.3-.3.5-.6.7-.2.2-.5.4-.9.5-.3.1-.7.2-1.1.2-.6,0-1.2-.1-1.8-.3-.5-.2-1-.5-1.5-1l.6-.7c.4.4.8.7,1.3.9.4.2.9.3,1.5.3s1-.1,1.3-.4c.3-.3.5-.6.5-1s0-.4,0-.5-.2-.3-.3-.4-.4-.2-.6-.3c-.3,0-.6-.2-1-.3-.5,0-.9-.2-1.2-.3-.3-.1-.6-.3-.8-.5-.2-.2-.4-.4-.5-.6-.1-.2-.2-.5-.2-.9s0-.6.2-.9c.1-.3.3-.5.6-.7.2-.2.5-.3.8-.5.3-.1.7-.2,1.1-.2.6,0,1.1,0,1.5.2.4.2.9.4,1.3.7l-.5.7c-.4-.3-.8-.5-1.1-.7-.4-.1-.8-.2-1.2-.2s-.5,0-.7.1c-.2,0-.4.2-.5.3-.1.1-.3.3-.3.4,0,.2-.1.3-.1.5s0,.4,0,.5Z"/>
          <path class="st24" d="M408.6,175.3h-4.9v2.7h4.4v.8h-4.4v2.8h5v.8h-5.9v-8h5.8v.8Z"/>
          <path class="st24" d="M417.7,182.5l-2.3-3.1h-2.3v3.1h-.9v-8h3.5c.4,0,.8,0,1.2.2.4.1.7.3.9.5.3.2.4.5.6.8.1.3.2.6.2,1s0,.6-.2.9c-.1.3-.3.5-.5.7-.2.2-.4.4-.7.5-.3.1-.6.2-.9.3l2.5,3.3h-1.1ZM417.1,175.8c-.4-.3-.9-.4-1.5-.4h-2.5v3.3h2.5c.3,0,.6,0,.8-.1.3,0,.5-.2.7-.3.2-.1.3-.3.4-.5.1-.2.2-.4.2-.7,0-.5-.2-.9-.5-1.2Z"/>
          <path class="st24" d="M427.7,182.5l-3.9-5.1v5.1h-1.7v-8h1.6l3.8,4.9v-4.9h1.7v8h-1.5Z"/>
          <path class="st24" d="M438.8,182.5l-.7-1.8h-3.4l-.7,1.8h-1.8l3.4-8.1h1.6l3.4,8.1h-1.8ZM436.4,176.6l-1.1,2.6h2.1l-1.1-2.6Z"/>
          <path class="st24" d="M449.9,182.5v-5.2l-2.3,3.4h0l-2.2-3.4v5.2h-1.7v-8h1.9l2.1,3.4,2.1-3.4h1.9v8h-1.7Z"/>
          <path class="st24" d="M455.3,182.5v-8h6v1.6h-4.3v1.6h3.8v1.6h-3.8v1.7h4.4v1.6h-6.1Z"/>
        </g>
      </g>
    </g>
  </g>
</svg>